<svg width="42" height="38" viewBox="0 0 42 38" fill="none" xmlns="http://www.w3.org/2000/svg">
<g id="Frame" clip-path="url(#clip0_8414_3904)">
<g id="Group">
<g id="Group_2">
<path id="Vector" d="M27.4422 0.609375H14.558C12.518 0.609375 10.9075 2.19412 10.9075 4.20147V6.84271H14.558V4.20147H27.4422V6.84271H31.0927V4.20147C31.0927 2.19412 29.4822 0.609375 27.4422 0.609375Z" fill="white"/>
<path id="Vector_2" d="M37.1054 9.48438H4.89483C2.53273 9.48438 0.600098 11.3861 0.600098 13.7104V33.7838C0.600098 36.1081 2.53273 38.0098 4.89483 38.0098H37.1054C39.4675 38.0098 41.4001 36.1081 41.4001 33.7838V13.7104C41.4001 11.3861 39.4675 9.48438 37.1054 9.48438ZM27.7643 25.7544C27.7643 26.0714 27.5496 26.2827 27.2275 26.2827H23.6843V29.7691C23.6843 30.0861 23.4696 30.2974 23.1475 30.2974H19.0675C18.7454 30.2974 18.5306 30.0861 18.5306 29.7691V26.2827H14.9875C14.6654 26.2827 14.4506 26.0714 14.4506 25.7544V21.7397C14.4506 21.4228 14.6654 21.2115 14.9875 21.2115H18.5306V17.7251C18.5306 17.4081 18.7454 17.1968 19.0675 17.1968H23.1475C23.4696 17.1968 23.6843 17.4081 23.6843 17.7251V21.2115H27.2275C27.5496 21.2115 27.7643 21.4228 27.7643 21.7397V25.7544Z" fill="white"/>
</g>
</g>
</g>
<defs>
<clipPath id="clip0_8414_3904">
<rect width="40.8" height="37.4" fill="white" transform="translate(0.600098 0.609375)"/>
</clipPath>
</defs>
</svg>
