<svg width="30" height="42" viewBox="0 0 30 42" fill="none" xmlns="http://www.w3.org/2000/svg">
<g id="Frame" clip-path="url(#clip0_8414_896)">
<g id="Group">
<g id="Group_2">
<g id="Group_3">
<path id="Vector" d="M22.6637 6.89379V1.99779C22.6637 1.34499 22.2356 0.90979 21.5933 0.90979H3.82519C3.18297 0.90979 2.75482 1.34499 2.75482 1.99779V6.89379C2.75482 7.22019 3.07593 7.43779 3.39704 7.43779H22.1285C22.3426 7.43779 22.6637 7.22019 22.6637 6.89379ZM23.9482 30.8298C20.9511 30.8298 18.5963 33.2234 18.5963 36.2698C18.5963 37.249 18.9174 38.2282 19.3456 38.9898L26.6241 31.5914C25.8748 31.1562 24.9115 30.8298 23.9482 30.8298ZM28.5507 33.5498L21.2722 40.9482C22.0215 41.3834 22.9848 41.7098 23.9482 41.7098C26.9452 41.7098 29.3 39.3162 29.3 36.2698C29.3 35.2906 28.9789 34.3114 28.5507 33.5498Z" fill="white"/>
<path id="Vector_2" d="M20.8441 15.5978H15.1711C14.4219 15.5978 13.8867 14.945 13.8867 14.2922C13.8867 13.6394 14.5289 12.9866 15.1711 12.9866H20.7371V10.7018C20.7371 10.3754 20.523 10.1578 20.2019 10.1578H5.21669C4.89558 10.1578 4.68151 10.3754 4.68151 10.7018V15.5978C2.32669 15.5978 0.400024 17.5562 0.400024 19.9498V37.3578C0.400024 39.7514 2.32669 41.7098 4.68151 41.7098H17.9541C16.6697 40.2954 15.9204 38.337 15.9204 36.2698C15.9204 31.809 19.5597 28.1098 23.9482 28.1098C24.2693 28.1098 24.6974 28.1098 25.0185 28.2186V19.9498C25.0185 17.5562 23.1989 15.7066 20.8441 15.5978ZM6.50114 34.6378C6.50114 35.3994 5.85891 35.9434 5.21669 35.9434C4.57447 35.9434 3.82521 35.3994 3.82521 34.6378V29.7418C3.82521 28.9802 4.46743 28.4362 5.21669 28.4362C5.96595 28.4362 6.50114 29.089 6.50114 29.7418V34.6378ZM6.50114 24.3018C6.50114 25.0634 5.85891 25.6074 5.21669 25.6074C4.57447 25.6074 3.82521 24.9546 3.82521 24.3018V22.6698C3.82521 21.9082 4.46743 21.3642 5.21669 21.3642C5.96595 21.3642 6.50114 22.017 6.50114 22.6698V24.3018Z" fill="white"/>
</g>
</g>
</g>
</g>
<defs>
<clipPath id="clip0_8414_896">
<rect width="28.9" height="40.8" fill="white" transform="translate(0.400024 0.90979)"/>
</clipPath>
</defs>
</svg>
