<svg width="40" height="38" viewBox="0 0 40 38" fill="none" xmlns="http://www.w3.org/2000/svg">
<g id="Frame" clip-path="url(#clip0_8414_2262)">
<g id="Group">
<g id="Group_2">
<path id="Vector" d="M33.5595 0.309814H29.3324C28.17 0.309814 27.2189 1.30863 27.2189 2.5294C27.2189 3.75017 26.2678 4.74898 25.1054 4.74898C23.943 4.74898 22.9919 3.75017 22.9919 2.5294C22.9919 1.30863 22.0408 0.309814 20.8784 0.309814H15.5946C14.4322 0.309814 13.4811 1.30863 13.4811 2.5294C13.4811 3.75017 12.53 4.74898 11.3676 4.74898C10.2051 4.74898 9.25404 3.75017 9.25404 2.5294C9.25404 1.30863 8.30296 0.309814 7.14053 0.309814H2.9135C1.75107 0.309814 0.799988 1.30863 0.799988 2.5294V30.2742C0.799988 31.495 1.75107 32.4938 2.9135 32.4938H18.9762C18.4478 31.0511 18.1308 29.3864 18.1308 27.7217C18.0251 20.508 23.6259 14.7371 30.3892 14.7371C32.2913 14.7371 34.0878 15.181 35.673 15.9579V2.5294C35.673 1.30863 34.7219 0.309814 33.5595 0.309814ZM7.14053 27.1668C5.9781 27.1668 5.02702 26.168 5.02702 24.9472C5.02702 23.7264 5.9781 22.7276 7.14053 22.7276C8.30296 22.7276 9.25404 23.7264 9.25404 24.9472C9.25404 26.168 8.30296 27.1668 7.14053 27.1668ZM7.14053 20.508C5.9781 20.508 5.02702 19.5092 5.02702 18.2885C5.02702 17.0677 5.9781 16.0689 7.14053 16.0689C8.30296 16.0689 9.25404 17.0677 9.25404 18.2885C9.25404 19.5092 8.30296 20.508 7.14053 20.508ZM13.4811 27.1668C12.3186 27.1668 11.3676 26.168 11.3676 24.9472C11.3676 23.7264 12.3186 22.7276 13.4811 22.7276C14.6435 22.7276 15.5946 23.7264 15.5946 24.9472C15.5946 26.168 14.6435 27.1668 13.4811 27.1668ZM13.4811 20.508C12.3186 20.508 11.3676 19.5092 11.3676 18.2885C11.3676 17.0677 12.3186 16.0689 13.4811 16.0689C14.6435 16.0689 15.5946 17.0677 15.5946 18.2885C15.5946 19.5092 14.6435 20.508 13.4811 20.508ZM13.4811 13.8493C12.3186 13.8493 11.3676 12.8505 11.3676 11.6297C11.3676 10.4089 12.3186 9.41011 13.4811 9.41011C14.6435 9.41011 15.5946 10.4089 15.5946 11.6297C15.5946 12.8505 14.6435 13.8493 13.4811 13.8493ZM19.8216 13.8493C18.6592 13.8493 17.7081 12.8505 17.7081 11.6297C17.7081 10.4089 18.6592 9.41011 19.8216 9.41011C20.984 9.41011 21.9351 10.4089 21.9351 11.6297C21.9351 12.8505 20.984 13.8493 19.8216 13.8493Z" fill="white"/>
<path id="Vector_2" d="M30.3892 17.7336C25.1054 17.7336 20.8784 22.1728 20.8784 27.7217C20.8784 33.2707 25.1054 37.7098 30.3892 37.7098C35.673 37.7098 39.9 33.2707 39.9 27.7217C39.9 22.1728 35.673 17.7336 30.3892 17.7336ZM31.6573 28.2766C31.6573 29.0535 31.0232 29.6084 30.3892 29.6084H25.1054C24.3657 29.6084 23.8373 28.9425 23.8373 28.2766C23.8373 27.4998 24.4713 26.9449 25.1054 26.9449H29.1211V21.6179C29.1211 20.841 29.7551 20.2861 30.3892 20.2861C31.0232 20.2861 31.6573 20.952 31.6573 21.6179V28.2766Z" fill="white"/>
</g>
</g>
</g>
<defs>
<clipPath id="clip0_8414_2262">
<rect width="39.1" height="37.4" fill="white" transform="translate(0.799988 0.309814)"/>
</clipPath>
</defs>
</svg>
